<?xml version="1.0" ?><!DOCTYPE svg  PUBLIC '-//W3C//DTD SVG 1.1//EN'  'http://www.w3.org/Graphics/SVG/1.1/DTD/svg11.dtd'><svg enable-background="new 0 0 120 120" height="120px" id="Layer_1" version="1.1" viewBox="0 0 120 120" width="120px" xml:space="preserve" xmlns="http://www.w3.org/2000/svg" xmlns:xlink="http://www.w3.org/1999/xlink"><path d="M93.237,68.674c0.784-0.495,1.643-1.244,2.267-2.354c0.998-1.776,1.106-3.918,0.321-6.367  c-1.365-4.263-4.849-5.449-7.725-5.263l-2.193-6.846c-0.161-0.505-0.518-0.925-0.989-1.168c-0.471-0.243-1.02-0.288-1.525-0.126  l-7.737,2.479c-0.917,0.294-1.494,1.206-1.373,2.162c0.007,0.053,0.599,5.367-2.226,6.271c-2.706,0.874-4.896-3.789-4.915-3.831  c-0.414-0.933-1.463-1.402-2.438-1.093l-6.146,1.969l-1.952-6.092c2.602-1.647,5.467-4.912,3.968-9.587  c-1.48-4.623-5.816-5.533-8.962-5.313l-2.123-6.624c-0.337-1.052-1.461-1.633-2.515-1.294l-18.328,5.873  c-5.551,1.779-5.406,7.877-4.535,10.913l4.688,14.633c0.336,1.052,1.459,1.63,2.515,1.294c1.052-0.337,1.631-1.463,1.294-2.515  l-4.67-14.574c-0.058-0.199-1.359-4.889,1.929-5.942l16.424-5.263l2.03,6.336c0.32,1.001,1.355,1.584,2.384,1.332  c0.199-0.05,4.927-1.172,6.061,2.365c1.14,3.557-2.871,5.335-3.323,5.522c-0.973,0.392-1.478,1.467-1.157,2.465l2.465,7.692  l-3.65,1.17c-1.668-2.746-4.95-5.82-9.507-4.243c-4.015,1.388-4.724,5.626-4.464,8.719l-2.479,0.794  c-0.358-1.016-1.462-1.571-2.496-1.238c-1.052,0.337-1.632,1.463-1.294,2.515l0.593,1.849c0,0,0,0,0,0.001l7.303,22.791  c0.027,0.087,0.062,0.172,0.102,0.255c1.191,2.482,4.001,6.165,7.661,6.165c0.563,0,1.147-0.087,1.749-0.28l18.971-6.079  l15.55-4.982c1.052-0.337,1.631-1.463,1.294-2.515c-0.337-1.052-1.462-1.633-2.515-1.294l-13.646,4.372l-2.632-8.213  c-0.177-0.552-0.584-1-1.116-1.228c-0.533-0.229-1.139-0.214-1.66,0.038c-0.391,0.189-2.084,0.798-3.23,0.306  c-0.216-0.093-0.876-0.375-1.309-1.725c-0.404-1.264-0.387-2.296,0.053-3.068c0.755-1.327,2.566-1.755,2.569-1.756  c0.554-0.118,1.031-0.464,1.314-0.953c0.284-0.489,0.348-1.076,0.175-1.614l-2.306-7.197l4.559-1.46  c1.702,2.75,4.847,5.724,8.941,4.416c4.064-1.302,5.11-5.652,5.085-8.91l4.347-1.393l2.115,6.603  c0.161,0.505,0.518,0.925,0.989,1.168c0.471,0.243,1.02,0.288,1.525,0.126c0.597-0.192,3.625-0.977,4.678,2.307  c0.426,1.332,0.432,2.395,0.016,3.16c-0.542,0.995-1.71,1.326-1.708,1.326c0,0,0,0,0,0c-0.54,0.131-1.002,0.48-1.274,0.965  c-0.271,0.484-0.33,1.061-0.16,1.59l2.556,7.976l-2.738,0.877c-1.052,0.337-1.631,1.463-1.294,2.515  c0.271,0.849,1.058,1.39,1.904,1.39c0.202,0,0.407-0.031,0.61-0.096l4.643-1.488c1.052-0.337,1.631-1.463,1.294-2.515L93.237,68.674  z M54.574,67.811c-1.041,1.794-1.179,3.918-0.411,6.313c0.817,2.551,2.377,3.682,3.542,4.181c1.536,0.659,3.14,0.579,4.381,0.326  l2.024,6.315l-17.066,5.468c-1.892,0.609-3.967-2.609-4.529-3.698l-6.646-20.741l4.104-1.315c0.998-0.32,1.58-1.355,1.334-2.374  c-0.012-0.049-1.106-4.921,1.59-5.853c3.317-1.147,5.259,3.443,5.337,3.632c0.392,0.973,1.468,1.478,2.466,1.158l5.269-1.688  l1.729,5.398C56.639,65.481,55.405,66.379,54.574,67.811z"/></svg>